{
  "accessors": [
    {
      "bufferView": 2,
      "componentType": 5126,
      "count": 118,
      "max": [
        3.222806453704834,
        3.2228047847747803,
        9.300694465637207
      ],
      "min": [
        -9.891942909234785e-07,
        -2.1253624709061114e-06,
        1.8936190605163574
      ],
      "type": "VEC3"
    },
    {
      "bufferView": 2,
      "byteOffset": 1416,
      "componentType": 5126,
      "count": 118,
      "max": [
        0.9999533295631409,
        0.9999532699584961,
        1.0
      ],
      "min": [
        -3.9206699398164346e-07,
        -3.864241193696216e-07,
        -0.7313421964645386
      ],
      "type": "VEC3"
    },
    {
      "bufferView": 1,
      "componentType": 5126,
      "count": 118,
      "max": [
        0.9999999403953552,
        0.9059801697731018
      ],
      "min": [
        0.15363429486751556,
        0.0
      ],
      "type": "VEC2"
    },
    {
      "bufferView": 0,
      "componentType": 5125,
      "count": 396,
      "type": "SCALAR"
    },
    {
      "bufferView": 2,
      "byteOffset": 2832,
      "componentType": 5126,
      "count": 115,
      "max": [
        3.222806453704834,
        -1.7791644495446235e-06,
        9.300694465637207
      ],
      "min": [
        -9.891942909234785e-07,
        -3.2228076457977295,
        1.8936190605163574
      ],
      "type": "VEC3"
    },
    {
      "bufferView": 2,
      "byteOffset": 4212,
      "componentType": 5126,
      "count": 115,
      "max": [
        0.9999533295631409,
        1.9962694608466336e-08,
        1.0
      ],
      "min": [
        -5.650171033266815e-07,
        -0.9999532699584961,
        -0.7313421964645386
      ],
      "type": "VEC3"
    },
    {
      "bufferView": 1,
      "byteOffset": 944,
      "componentType": 5126,
      "count": 115,
      "max": [
        0.9036489129066467,
        0.9416680335998535
      ],
      "min": [
        0.0,
        0.0
      ],
      "type": "VEC2"
    },
    {
      "bufferView": 0,
      "byteOffset": 1584,
      "componentType": 5125,
      "count": 396,
      "type": "SCALAR"
    },
    {
      "bufferView": 2,
      "byteOffset": 5592,
      "componentType": 5126,
      "count": 113,
      "max": [
        -1.9115142890768766e-07,
        -3.3471525284767267e-07,
        9.300694465637207
      ],
      "min": [
        -3.2228052616119385,
        -3.2228076457977295,
        1.8936190605163574
      ],
      "type": "VEC3"
    },
    {
      "bufferView": 2,
      "byteOffset": 6948,
      "componentType": 5126,
      "count": 113,
      "max": [
        1.195553767097124e-09,
        5.145631689629226e-07,
        1.0
      ],
      "min": [
        -0.9999533295631409,
        -0.9999532699584961,
        -0.7313421964645386
      ],
      "type": "VEC3"
    },
    {
      "bufferView": 1,
      "byteOffset": 1864,
      "componentType": 5126,
      "count": 113,
      "max": [
        0.9319957494735718,
        0.7129783630371094
      ],
      "min": [
        0.15882748365402222,
        0.0
      ],
      "type": "VEC2"
    },
    {
      "bufferView": 0,
      "byteOffset": 3168,
      "componentType": 5125,
      "count": 396,
      "type": "SCALAR"
    },
    {
      "bufferView": 2,
      "byteOffset": 8304,
      "componentType": 5126,
      "count": 117,
      "max": [
        1.0952392131002853e-06,
        3.2228047847747803,
        9.300694465637207
      ],
      "min": [
        -3.2228052616119385,
        -2.1253624709061114e-06,
        1.8936190605163574
      ],
      "type": "VEC3"
    },
    {
      "bufferView": 2,
      "byteOffset": 9708,
      "componentType": 5126,
      "count": 117,
      "max": [
        1.2013018135803577e-07,
        0.9999532699584961,
        1.0
      ],
      "min": [
        -0.9999533295631409,
        -6.586809320197062e-08,
        -0.7313421964645386
      ],
      "type": "VEC3"
    },
    {
      "bufferView": 1,
      "byteOffset": 2768,
      "componentType": 5126,
      "count": 117,
      "max": [
        0.9999999403953552,
        0.8862374424934387
      ],
      "min": [
        0.3266633152961731,
        0.0
      ],
      "type": "VEC2"
    },
    {
      "bufferView": 0,
      "byteOffset": 4752,
      "componentType": 5125,
      "count": 396,
      "type": "SCALAR"
    },
    {
      "bufferView": 2,
      "byteOffset": 11112,
      "componentType": 5126,
      "count": 576,
      "max": [
        0.62601637840271,
        0.6875820159912109,
        1.9528909921646118
      ],
      "min": [
        -0.689967930316925,
        -0.6690629720687866,
        0.5840873122215271
      ],
      "type": "VEC3"
    },
    {
      "bufferView": 2,
      "byteOffset": 18024,
      "componentType": 5126,
      "count": 576,
      "max": [
        0.9919082522392273,
        0.9890891909599304,
        1.0
      ],
      "min": [
        -0.9919082522392273,
        -0.9890897274017334,
        -1.0
      ],
      "type": "VEC3"
    },
    {
      "bufferView": 1,
      "byteOffset": 3704,
      "componentType": 5126,
      "count": 576,
      "max": [
        1.0,
        1.0
      ],
      "min": [
        0.0,
        0.01000000536441803
      ],
      "type": "VEC2"
    },
    {
      "bufferView": 0,
      "byteOffset": 6336,
      "componentType": 5125,
      "count": 948,
      "type": "SCALAR"
    },
    {
      "bufferView": 2,
      "byteOffset": 24936,
      "componentType": 5126,
      "count": 96,
      "max": [
        1.0,
        1.0,
        1.0
      ],
      "min": [
        -1.0,
        -1.0,
        -1.0
      ],
      "type": "VEC3"
    },
    {
      "bufferView": 2,
      "byteOffset": 26088,
      "componentType": 5126,
      "count": 96,
      "max": [
        0.9975627064704895,
        0.9975627064704895,
        1.0
      ],
      "min": [
        -0.9975627064704895,
        -0.9975627064704895,
        -1.0
      ],
      "type": "VEC3"
    },
    {
      "bufferView": 1,
      "byteOffset": 8312,
      "componentType": 5126,
      "count": 96,
      "max": [
        0.875,
        0.9854263067245483
      ],
      "min": [
        0.125,
        0.0
      ],
      "type": "VEC2"
    },
    {
      "bufferView": 0,
      "byteOffset": 10128,
      "componentType": 5125,
      "count": 156,
      "type": "SCALAR"
    }
  ],
  "asset": {
    "extras": {
      "author": "BlazeDev (https://sketchfab.com/BlazeDev)",
      "license": "CC-BY-4.0 (http://creativecommons.org/licenses/by/4.0/)",
      "source": "https://sketchfab.com/3d-models/lowpoly-baloon-5f07f5a1d3b340a0b4f7340240bff658",
      "title": "Lowpoly baloon"
    },
    "generator": "Sketchfab-15.49.0",
    "version": "2.0"
  },
  "bufferViews": [
    {
      "buffer": 0,
      "byteLength": 10752,
      "name": "floatBufferViews",
      "target": 34963
    },
    {
      "buffer": 0,
      "byteLength": 9080,
      "byteOffset": 10752,
      "byteStride": 8,
      "name": "floatBufferViews",
      "target": 34962
    },
    {
      "buffer": 0,
      "byteLength": 27240,
      "byteOffset": 19832,
      "byteStride": 12,
      "name": "floatBufferViews",
      "target": 34962
    }
  ],
  "buffers": [
    {
      "byteLength": 47072,
      "uri": "scene.bin"
    }
  ],
  "materials": [
    {
      "doubleSided": true,
      "name": "Material.003",
      "pbrMetallicRoughness": {
        "baseColorFactor": [
          0.0295568,
          0.0666259,
          0.0648033,
          1.0
        ],
        "metallicFactor": 0.0,
        "roughnessFactor": 0.9868936413808096
      }
    },
    {
      "doubleSided": true,
      "name": "Material.002",
      "pbrMetallicRoughness": {
        "baseColorFactor": [
          0.00212464,
          0.0202885,
          0.0561285,
          1.0
        ],
        "metallicFactor": 0.0,
        "roughnessFactor": 0.9957482260031154
      }
    },
    {
      "doubleSided": true,
      "name": "baloon",
      "pbrMetallicRoughness": {
        "baseColorFactor": [
          0.445201,
          0.401978,
          0.0382045,
          1.0
        ],
        "metallicFactor": 0.0,
        "roughnessFactor": 0.9139331256980903
      }
    },
    {
      "doubleSided": true,
      "name": "Material.001",
      "pbrMetallicRoughness": {
        "baseColorFactor": [
          0.930111,
          0.00151741,
          0.00121413,
          1.0
        ],
        "metallicFactor": 0.0,
        "roughnessFactor": 0.9555213632994262
      }
    },
    {
      "doubleSided": true,
      "name": "wood",
      "pbrMetallicRoughness": {
        "baseColorFactor": [
          0.219526,
          0.0742135,
          0.0273209,
          1.0
        ],
        "metallicFactor": 0.0,
        "roughnessFactor": 0.9772544276820829
      }
    },
    {
      "doubleSided": true,
      "name": "Material.004",
      "pbrMetallicRoughness": {
        "baseColorFactor": [
          0.334317,
          0.127339,
          0.122064,
          1.0
        ],
        "metallicFactor": 0.0,
        "roughnessFactor": 0.9617718089252463
      }
    }
  ],
  "meshes": [
    {
      "name": "Baloon_Material.003_0",
      "primitives": [
        {
          "attributes": {
            "NORMAL": 1,
            "POSITION": 0,
            "TEXCOORD_0": 2
          },
          "indices": 3,
          "material": 0,
          "mode": 4
        }
      ]
    },
    {
      "name": "Baloon_Material.002_0",
      "primitives": [
        {
          "attributes": {
            "NORMAL": 5,
            "POSITION": 4,
            "TEXCOORD_0": 6
          },
          "indices": 7,
          "material": 1,
          "mode": 4
        }
      ]
    },
    {
      "name": "Baloon_baloon_0",
      "primitives": [
        {
          "attributes": {
            "NORMAL": 9,
            "POSITION": 8,
            "TEXCOORD_0": 10
          },
          "indices": 11,
          "material": 2,
          "mode": 4
        }
      ]
    },
    {
      "name": "Baloon_Material.001_0",
      "primitives": [
        {
          "attributes": {
            "NORMAL": 13,
            "POSITION": 12,
            "TEXCOORD_0": 14
          },
          "indices": 15,
          "material": 3,
          "mode": 4
        }
      ]
    },
    {
      "name": "Baloon_wood_0",
      "primitives": [
        {
          "attributes": {
            "NORMAL": 17,
            "POSITION": 16,
            "TEXCOORD_0": 18
          },
          "indices": 19,
          "material": 4,
          "mode": 4
        }
      ]
    },
    {
      "name": "Cabin_Material.004_0",
      "primitives": [
        {
          "attributes": {
            "NORMAL": 21,
            "POSITION": 20,
            "TEXCOORD_0": 22
          },
          "indices": 23,
          "material": 5,
          "mode": 4
        }
      ]
    }
  ],
  "nodes": [
    {
      "children": [
        1
      ],
      "matrix": [
        1.0,
        0.0,
        0.0,
        0.0,
        0.0,
        -5.053215392444312e-16,
        1.0,
        0.0,
        0.0,
        -1.0,
        -5.053215392444312e-16,
        0.0,
        0.0,
        0.0,
        0.0,
        1.0
      ],
      "name": "Sketchfab_model"
    },
    {
      "children": [
        2
      ],
      "matrix": [
        0.009999999776482582,
        0.0,
        0.0,
        0.0,
        0.0,
        -0.009999999776482582,
        0.0,
        0.0,
        0.0,
        0.0,
        -0.009999999776482582,
        0.0,
        0.0,
        0.0,
        0.0,
        1.0
      ],
      "name": "351105085bf640048a65aa4dae26f720.fbx"
    },
    {
      "children": [
        3,
        9
      ],
      "name": "RootNode"
    },
    {
      "children": [
        4,
        5,
        6,
        7,
        8
      ],
      "matrix": [
        -1.629206793918314e-05,
        99.99999999999866,
        1.3234889800848443e-21,
        0.0,
        -99.99999999999733,
        -1.629206793918314e-05,
        -1.6292069915380057e-05,
        0.0,
        -1.629206991537984e-05,
        -2.654315101172126e-12,
        99.99999999999866,
        0.0,
        0.0,
        0.0,
        0.0,
        1.0
      ],
      "name": "Baloon"
    },
    {
      "mesh": 0,
      "name": "Baloon_Material.003_0"
    },
    {
      "mesh": 1,
      "name": "Baloon_Material.002_0"
    },
    {
      "mesh": 2,
      "name": "Baloon_baloon_0"
    },
    {
      "mesh": 3,
      "name": "Baloon_Material.001_0"
    },
    {
      "mesh": 4,
      "name": "Baloon_wood_0"
    },
    {
      "children": [
        10
      ],
      "matrix": [
        -1.1540314643474669e-05,
        70.8339462280264,
        0.0,
        0.0,
        -70.8339462280264,
        -1.1540314643474669e-05,
        0.0,
        0.0,
        0.0,
        0.0,
        70.83394622802734,
        0.0,
        0.0,
        -4.971621036529541,
        0.0,
        1.0
      ],
      "name": "Cabin"
    },
    {
      "mesh": 5,
      "name": "Cabin_Material.004_0"
    }
  ],
  "scene": 0,
  "scenes": [
    {
      "name": "Sketchfab_Scene",
      "nodes": [
        0
      ]
    }
  ]
}
